<svg xmlns="http://www.w3.org/2000/svg" width="32" height="32" viewBox="0 0 32 32" fill="none">
  <!-- Bullwhip Cursor SVG -->
  <!-- Shadow/Halo for visibility -->
  <path d="M4 28 L9 23 L11 25 L6 30 Z" fill="#000000" stroke="#000000" stroke-width="2"/>
  <path d="M9 23 C14 18, 16 11, 22 9 C27 7, 28 13, 24 18 C21 21, 18 20, 19 16 C20 12, 26 11, 28 6 C29 4, 30 2, 31 1" 
        stroke="#000000" stroke-width="4.5" stroke-linecap="round" fill="none"/>

  <!-- Leather Handle -->
  <path d="M4 28 L9 23 L11 25 L6 30 Z" fill="#92400e" stroke="#fef08a" stroke-width="0.8"/>
  <line x1="5.5" y1="26.5" x2="7.5" y2="28.5" stroke="#f59e0b" stroke-width="0.8"/>
  <line x1="7" y1="25" x2="9" y2="27" stroke="#f59e0b" stroke-width="0.8"/>
  <line x1="8.5" y1="23.5" x2="10.5" y2="25.5" stroke="#f59e0b" stroke-width="0.8"/>
  <!-- Handle Pommel -->
  <circle cx="4.5" cy="29.5" r="1.5" fill="#facc15" stroke="#78350f" stroke-width="0.6"/>

  <!-- Braided Leather Whip Lash -->
  <path d="M9 23 C14 18, 16 11, 22 9 C27 7, 28 13, 24 18 C21 21, 18 20, 19 16 C20 12, 26 11, 28 6 C29 4, 30 2, 31 1" 
        stroke="#f59e0b" stroke-width="2.5" stroke-linecap="round" fill="none"/>
  <path d="M9 23 C14 18, 16 11, 22 9 C27 7, 28 13, 24 18 C21 21, 18 20, 19 16 C20 12, 26 11, 28 6 C29 4, 30 2, 31 1" 
        stroke="#451a03" stroke-width="1.2" stroke-linecap="round" fill="none"/>

  <!-- Whip Tip / Cracker Popper -->
  <circle cx="31" cy="1" r="1.2" fill="#ef4444"/>
  <path d="M30 2 L32 0" stroke="#facc15" stroke-width="1"/>
</svg>
